<svg width="18" height="22" viewBox="0 0 18 22" fill="none" xmlns="http://www.w3.org/2000/svg">
<path d="M3 7.15384V6.13461C3 2.75718 5.68629 0.0192261 9 0.0192261C12.3137 0.0192261 15 2.75718 15 6.13461V7.15384H17C17.5523 7.15384 18 7.61017 18 8.17307V20.4038C18 20.9668 17.5523 21.4231 17 21.4231H1C0.44772 21.4231 0 20.9668 0 20.4038V8.17307C0 7.61017 0.44772 7.15384 1 7.15384H3ZM16 9.1923H2V19.3846H16V9.1923ZM8 15.0349C7.4022 14.6825 7 14.0238 7 13.2692C7 12.1434 7.8954 11.2308 9 11.2308C10.1046 11.2308 11 12.1434 11 13.2692C11 14.0238 10.5978 14.6825 10 15.0349V17.3461H8V15.0349ZM5 7.15384H13V6.13461C13 3.88299 11.2091 2.05769 9 2.05769C6.79086 2.05769 5 3.88299 5 6.13461V7.15384Z" fill="#1C1C1C"/>
</svg>
