<svg width="22" height="39" viewBox="0 0 22 39" fill="none" xmlns="http://www.w3.org/2000/svg">
<path fill-rule="evenodd" clip-rule="evenodd" d="M6.11411 26.8572H6.09668V35.3572C6.09668 37.2902 7.66368 38.8572 9.59668 38.8572H13.0967V30.1252C17.919 30.1249 21.8281 26.2156 21.8281 21.3932C21.8281 16.5707 17.9187 12.6613 13.0961 12.6613H6.85851C6.44513 12.6613 6.11003 12.9964 6.11003 13.4097V26.6883C6.11003 26.7449 6.1114 26.8012 6.11411 26.8572ZM6.11411 26.8572C6.20217 28.6769 7.70544 30.1252 9.54699 30.1252H13.0961C13.0963 30.1252 13.0965 30.1252 13.0967 30.1252V28.8572C13.0967 27.7526 12.2012 26.8572 11.0967 26.8572H6.11411Z" fill="#00C2FF" fill-opacity="0.9"/>
<path fill-rule="evenodd" clip-rule="evenodd" d="M0.532717 26.196H7.77961C12.1637 26.196 15.7178 22.642 15.7178 18.2579C15.7178 15.9244 14.7109 13.8261 13.108 12.3736C14.2268 10.8952 14.8905 9.05317 14.8905 7.05614C14.8905 3.15913 11.7314 -1.52588e-05 7.83435 -1.52588e-05H2.97784C1.33305 -1.52588e-05 -0.000323296 1.33335 -0.000323296 2.97815V10.8527V13.9464V25.663C-0.000323296 25.9574 0.238327 26.196 0.532717 26.196Z" fill="#CB3CFF" fill-opacity="0.7"/>
</svg>
