<svg width="400" height="362" viewBox="0 0 400 362" fill="none" xmlns="http://www.w3.org/2000/svg">
<path fill-rule="evenodd" clip-rule="evenodd" d="M216.952 21.6244C234.885 28.2297 250.175 39.0345 266.834 48.4007C282.545 57.2339 296.484 67.9196 312.823 75.5272C341.459 88.8602 394.685 79.0828 399.711 110.268C404.945 142.746 337.514 145.771 329.277 177.619C321.407 208.045 379.581 241.484 359.515 265.672C339.204 290.155 295.92 243.011 266.019 253.871C240.538 263.125 239.068 301.769 216.952 317.448C187.092 338.617 152.161 369.721 117.011 359.512C84.3401 350.023 85.0809 300.63 64.8562 273.274C45.4597 247.038 -3.16725 233.919 0.162857 201.463C4.08422 163.243 53.7077 148.377 80.4964 120.837C94.8313 106.1 111.986 94.2081 121.97 76.2366C134.47 53.738 123.246 16.5609 145.559 3.73174C167.097 -8.65254 193.638 13.0372 216.952 21.6244Z" fill="url(#paint0_linear_1685_1785)"/>
<defs>
<linearGradient id="paint0_linear_1685_1785" x1="0" y1="180.757" x2="400" y2="180.757" gradientUnits="userSpaceOnUse">
<stop stop-color="#BC4E9C"/>
<stop offset="1" stop-color="#F80759"/>
</linearGradient>
</defs>
</svg>
