<svg width="343" height="279" viewBox="0 0 343 279" fill="none" xmlns="http://www.w3.org/2000/svg">
<path fill-rule="evenodd" clip-rule="evenodd" d="M219.775 36.821C235.784 43.4276 252.743 52.9099 269.714 49.4578C308.385 41.5914 340.672 -7.65624 378.184 4.5976C406.267 13.7713 401.11 61.5952 395.883 90.6726C390.589 120.12 359.771 138.427 349.101 166.38C343.275 181.644 349.1 198.647 348.439 214.972C347.651 234.426 349.953 253.997 344.791 272.771C338.794 294.587 337.443 326.781 315.847 333.525C290.779 341.353 268.674 311.385 243.345 304.448C228.23 300.309 212.244 297.94 196.862 300.939C172.492 305.69 151.02 335.654 127.754 326.983C107.127 319.295 116.047 284.257 103.526 266.151C91.6084 248.917 71.4881 239.818 57.0062 224.676C36.6397 203.379 -2.26891 187.38 0.103743 158.008C2.4592 128.849 45.7812 122.486 66.8967 102.239C81.9788 87.7775 94.1272 71.2362 107.416 55.1114C122.351 36.9901 127.653 4.16796 150.83 0.395039C176.705 -3.81699 195.543 26.8202 219.775 36.821Z" fill="url(#paint0_linear_1516_1950)"/>
<defs>
<linearGradient id="paint0_linear_1516_1950" x1="0" y1="167.409" x2="400" y2="167.409" gradientUnits="userSpaceOnUse">
<stop stop-color="#BC4E9C"/>
<stop offset="1" stop-color="#F80759"/>
</linearGradient>
</defs>
</svg>
