<svg width="512" height="458" viewBox="0 0 512 458" fill="none" xmlns="http://www.w3.org/2000/svg">
<path fill-rule="evenodd" clip-rule="evenodd" d="M258.08 0.0210907C300.426 -0.911204 337.48 29.2301 368.939 57.6168C396.869 82.8195 404.359 122.104 426.826 152.287C453.043 187.507 512.808 205.884 511.992 249.797C511.17 294.002 447.926 308.569 423.239 345.234C400.916 378.39 410.631 434.357 375.242 452.904C339.479 471.647 298.439 432.725 258.08 431.792C219.038 430.89 181.383 458.868 144 447.56C104.636 435.654 75.5365 402.542 51.3431 369.26C25.4395 333.625 2.42126 293.811 0.241191 249.797C-1.97936 204.965 11.1438 158.343 39.16 123.293C65.942 89.7874 112.637 83.4764 150.002 62.4369C186.88 41.671 215.776 0.95245 258.08 0.0210907Z" fill="url(#paint0_linear_1685_1791)"/>
<defs>
<linearGradient id="paint0_linear_1685_1791" x1="0" y1="229" x2="512" y2="229" gradientUnits="userSpaceOnUse">
<stop stop-color="#BC4E9C"/>
<stop offset="1" stop-color="#F80759"/>
</linearGradient>
</defs>
</svg>
