<svg width="473" height="465" viewBox="0 0 473 465" fill="none" xmlns="http://www.w3.org/2000/svg">
<path fill-rule="evenodd" clip-rule="evenodd" d="M233.809 70.1135C265.055 80.0901 296.208 81.0854 327.563 90.7141C377.286 105.984 452.851 93.9253 470.591 142.827C488.097 191.08 404.84 221.573 393.17 271.559C379.476 330.216 441.294 404.449 399.406 447.729C359.957 488.49 289.757 445.547 233.809 436.219C188.243 428.622 143.524 422.377 103.99 398.477C61.3827 372.718 -8.99494 344.233 0.95107 295.443C13.1513 235.595 129.115 249.944 146.222 191.31C164.336 129.226 45.5471 65.1771 83.4268 12.7617C115.642 -31.815 181.42 53.3857 233.809 70.1135Z" fill="url(#paint0_linear_1685_1783)"/>
<defs>
<linearGradient id="paint0_linear_1685_1783" x1="0" y1="232.5" x2="473" y2="232.5" gradientUnits="userSpaceOnUse">
<stop stop-color="#BC4E9C"/>
<stop offset="1" stop-color="#F80759"/>
</linearGradient>
</defs>
</svg>
