<svg width="297" height="353" viewBox="0 0 297 353" fill="none" xmlns="http://www.w3.org/2000/svg">
<path fill-rule="evenodd" clip-rule="evenodd" d="M173.685 -74.1644C200.43 -82.7915 226.913 -58.8647 252.348 -46.9148C277.964 -34.8795 315.569 -30.4977 324.078 -3.50468C333.889 27.6165 282.283 58.7102 295.105 88.7165C312.195 128.713 382.671 126.401 397.117 167.427C408.665 200.218 383.596 240.634 356.085 261.889C327.935 283.637 284.123 263.772 252.172 279.41C219.929 295.192 207.326 363.693 173.685 351.166C131.596 335.492 156.172 255.151 119.067 229.845C89.8233 209.899 40.1042 267.939 15.0269 242.955C-8.32808 219.688 26.7905 179.178 36.626 147.713C42.8992 127.643 66.5685 111.685 62.508 91.0543C54.3744 49.7287 -17.0702 17.5361 3.80532 -19.0449C22.797 -52.3248 79.7287 8.83598 116.176 -2.9897C145.557 -12.5227 144.288 -64.6816 173.685 -74.1644Z" fill="url(#paint0_linear_1516_1948)"/>
<defs>
<linearGradient id="paint0_linear_1516_1948" x1="0" y1="138.343" x2="400" y2="138.343" gradientUnits="userSpaceOnUse">
<stop stop-color="#BC4E9C"/>
<stop offset="1" stop-color="#F80759"/>
</linearGradient>
</defs>
</svg>
