<svg width="400" height="404" viewBox="0 0 400 404" fill="none" xmlns="http://www.w3.org/2000/svg">
<path fill-rule="evenodd" clip-rule="evenodd" d="M193.817 110.349C224.858 77.0815 231.911 17.9808 274.353 1.57899C299.61 -8.18164 331.552 29.4177 333.322 56.437C335.915 96.0156 267.462 128.488 284.999 164.064C302.445 199.455 409.153 152.195 399.367 190.42C387.912 235.167 302.302 199.662 267.974 230.567C252.845 244.187 292.425 264.905 294.094 285.193C295.789 305.796 288.185 326.758 277.336 344.356C265.189 364.057 248.984 382.595 228.009 392.381C206.62 402.359 180.597 407.413 158.213 399.929C135.48 392.327 128.141 360.356 105.852 351.535C77.6836 340.388 38.5956 363.957 16.0867 343.683C-4.2938 325.325 -2.94948 288.11 7.10662 262.591C18.486 233.713 51.9367 220.754 73.373 198.306C83.7726 187.416 102.486 178.613 101.658 163.578C99.8031 129.863 38.3627 88.5568 66.2889 69.5757C96.4886 49.0493 125.755 112.439 160.536 123.559C172.002 127.225 185.604 119.151 193.817 110.349Z" fill="url(#paint0_linear_1685_1789)"/>
<defs>
<linearGradient id="paint0_linear_1685_1789" x1="0" y1="201.758" x2="400" y2="201.758" gradientUnits="userSpaceOnUse">
<stop stop-color="#BC4E9C"/>
<stop offset="0.5" stop-color="#F80759"/>
</linearGradient>
</defs>
</svg>
