<svg width="487" height="439" viewBox="0 0 487 439" fill="none" xmlns="http://www.w3.org/2000/svg">
<path fill-rule="evenodd" clip-rule="evenodd" d="M208.174 122.033C223.168 134.37 241.551 143.612 260.926 145.003C294.737 147.432 327.971 123.886 360.623 132.983C397.522 143.263 432.846 166.139 453.186 198.567C474.482 232.521 503.808 287.431 474.948 315.258C434.716 354.051 361.815 313.591 310.612 336.039C288.197 345.866 296.186 383.857 278.926 401.197C259.833 420.377 235.226 440.109 208.174 438.951C180.938 437.786 165.13 406.466 140.283 395.263C114.664 383.712 64.6246 400.001 60.2652 372.262C54.2164 333.775 134.427 310.92 121.264 274.248C105.573 230.535 16.3008 251.055 1.01754 207.198C-9.59339 176.749 66.0018 180.778 78.3034 150.97C97.6284 104.145 36.5775 12.1545 86.0631 1.12819C142.708 -11.4934 163.376 85.1735 208.174 122.033Z" fill="url(#paint0_linear_1685_1779)"/>
<defs>
<linearGradient id="paint0_linear_1685_1779" x1="0" y1="219.5" x2="487" y2="219.5" gradientUnits="userSpaceOnUse">
<stop stop-color="#BC4E9C"/>
<stop offset="1" stop-color="#F80759"/>
</linearGradient>
</defs>
</svg>
