<svg width="404" height="520" viewBox="0 0 404 520" fill="none" xmlns="http://www.w3.org/2000/svg">
<path fill-rule="evenodd" clip-rule="evenodd" d="M2.82433 193.273C-0.941442 189.779 -0.941442 184.114 2.82433 180.62C6.59009 177.127 12.6956 177.127 16.4614 180.62L60.4239 221.408L89.2794 194.636C90.4069 193.559 91.7757 192.725 93.2896 192.192C94.8307 191.65 96.4831 191.434 98.1257 191.56C98.2743 191.572 98.4226 191.588 98.5702 191.609L144.571 198.167L162.51 181.523C166.276 178.029 172.382 178.029 176.148 181.523C179.914 185.017 179.914 190.682 176.148 194.175L158.208 210.819L165.276 253.498C165.299 253.635 165.317 253.772 165.329 253.91C165.465 255.434 165.232 256.967 164.649 258.397C164.074 259.801 163.174 261.071 162.014 262.118L133.158 288.889L177.175 329.728C180.941 333.222 180.941 338.885 177.175 342.379C173.409 345.873 167.305 345.873 163.539 342.379L2.82433 193.273ZM107.87 312.35L35.1363 244.869L5.61962 272.254C-0.498708 277.937 -0.501523 287.647 5.61681 293.33L55.6339 339.735C58.6473 342.526 62.7349 344.098 66.9939 344.098C71.2529 344.098 75.3376 342.53 78.351 339.738L107.87 312.35ZM122.057 241.143C115.926 241.143 110.955 236.531 110.955 230.843C110.955 225.154 115.926 220.542 122.057 220.542C128.189 220.542 133.16 225.154 133.16 230.843C133.16 236.531 128.189 241.143 122.057 241.143Z" fill="white"/>
<path fill-rule="evenodd" clip-rule="evenodd" d="M220.375 17.0357H237.831L242.557 33.3948C242.595 33.5238 242.635 33.6513 242.678 33.7774L254.789 88.7965C254.82 89.0926 254.867 89.3903 254.933 89.6884L260.19 113.571C260.911 116.778 262.828 119.66 265.619 121.729C268.409 123.799 271.899 124.929 275.501 124.929H351.626C356.804 124.929 361.001 121.115 361.001 116.411C361.001 111.706 356.804 107.893 351.626 107.893H278.061L274.936 93.6964H362.269L362.399 93.698C362.839 93.7052 364.093 93.7252 365.241 93.5545C369.43 92.9327 373.016 90.3451 374.686 86.8757C375.368 85.461 375.703 83.6772 375.813 83.0945L375.845 82.9247L385.739 39.0732L385.766 38.9552C386.095 37.3213 386.024 35.6414 385.561 34.0345C384.134 29.0822 379.149 25.5724 373.515 25.5536H259.677L255.494 11.0748C254.727 7.98156 252.84 5.20766 250.132 3.19901C247.342 1.12979 243.851 -0.000266666 240.25 4.72009e-08H220.375C215.197 4.72009e-08 211 3.81357 211 8.51786C211 13.2221 215.197 17.0357 220.375 17.0357ZM356.368 145.376C356.368 138.171 349.939 132.33 342.01 132.33C334.08 132.33 327.651 138.171 327.651 145.376C327.651 152.581 334.08 158.421 342.01 158.421C349.939 158.421 356.368 152.581 356.368 145.376ZM279.509 132.33C287.439 132.33 293.867 138.171 293.867 145.376C293.867 152.58 287.439 158.421 279.509 158.421C271.579 158.421 265.151 152.58 265.151 145.376C265.151 138.171 271.579 132.33 279.509 132.33Z" fill="#FFF9F9"/>
<path fill-rule="evenodd" clip-rule="evenodd" d="M342.209 364.839C346.602 362.27 352.198 363.832 354.708 368.327L380.069 413.748H384.936C387.66 413.702 390.362 414.279 392.841 415.436C395.342 416.603 397.554 418.331 399.314 420.492C401.073 422.653 402.336 425.191 403.006 427.919C403.676 430.641 403.739 433.483 403.193 436.233L403.189 436.249L389.759 504.974L389.754 504.996C388.897 509.296 386.595 513.151 383.247 515.893C379.918 518.619 375.763 520.07 371.501 519.998H269.499C265.237 520.07 261.083 518.619 257.753 515.893C254.405 513.151 252.103 509.296 251.246 504.996L251.241 504.974L237.811 436.249L237.808 436.235C237.261 433.484 237.324 430.642 237.994 427.919C238.665 425.191 239.927 422.653 241.686 420.492C243.446 418.331 245.658 416.603 248.159 415.436C250.639 414.279 253.339 413.702 256.064 413.748H260.931L286.292 368.327C288.802 363.832 294.398 362.27 298.791 364.839C303.184 367.408 304.71 373.134 302.2 377.63L282.032 413.748H358.968L338.8 377.63C336.29 373.134 337.816 367.408 342.209 364.839Z" fill="white"/>
</svg>
