<svg width="16" height="22" viewBox="0 0 16 22" fill="none" xmlns="http://www.w3.org/2000/svg">
<path d="M16 21.6923H14V19.6538C14 17.9651 12.6569 16.5961 11 16.5961H5C3.34315 16.5961 2 17.9651 2 19.6538V21.6923H0V19.6538C0 16.8393 2.23858 14.5577 5 14.5577H11C13.7614 14.5577 16 16.8393 16 19.6538V21.6923ZM8 12.5192C4.68629 12.5192 2 9.78126 2 6.40384C2 3.0264 4.68629 0.288452 8 0.288452C11.3137 0.288452 14 3.0264 14 6.40384C14 9.78126 11.3137 12.5192 8 12.5192ZM8 10.4808C10.2091 10.4808 12 8.65546 12 6.40384C12 4.15221 10.2091 2.32691 8 2.32691C5.79086 2.32691 4 4.15221 4 6.40384C4 8.65546 5.79086 10.4808 8 10.4808Z" fill="#1C1C1C"/>
</svg>
