<svg width="50" height="38" viewBox="0 0 50 38" fill="none" xmlns="http://www.w3.org/2000/svg">
<rect x="0.761719" y="0.983398" width="49.113" height="36.2949" rx="5.44424" fill="#0A1330"/>
<path fill-rule="evenodd" clip-rule="evenodd" d="M15.8932 8.69433C16.5049 8.50914 18.1352 8.13877 19.7626 8.13877H30.243C31.0168 8.13877 32.8653 8.21732 34.3334 8.68791C32.991 7.51988 32.8571 6.36752 32.8106 5.96727C32.8097 5.95877 32.8087 5.95062 32.8078 5.94281C32.7729 5.64604 32.6489 4.37494 32.589 3.7607L32.5867 3.73693C32.5516 3.37745 32.2329 3.07443 31.2158 2.91001C29.8007 2.68125 25.7766 2.14205 19.6741 2.77929C17.6806 3.08029 17.6821 3.47342 17.684 3.9736C17.6841 3.98934 17.6842 4.00518 17.6842 4.02113C17.6842 4.41634 17.5515 6.06361 17.2641 7.02765C17.152 7.40348 16.645 8.13877 15.8932 8.69433ZM15.6783 29.6415C16.3234 29.8959 17.3805 30.3127 19.6409 30.3631C23.1771 30.4419 25.6375 30.4362 27.9287 30.431C28.4884 30.4297 29.038 30.4285 29.5907 30.4285C29.6262 30.4285 29.6651 30.4286 29.7071 30.4287C30.5797 30.431 32.8109 30.4369 34.9414 29.5951C32.9408 30.6052 32.8922 31.8513 32.872 32.3701C32.8696 32.4304 32.8677 32.4808 32.8631 32.52C32.8277 32.8206 32.7009 34.1049 32.6419 34.7095C32.6069 35.069 32.3103 35.3947 31.2932 35.5592C29.8781 35.7879 25.854 36.3271 19.7515 35.6899C17.7579 35.3889 17.7595 34.9958 17.7614 34.4956C17.7615 34.4798 17.7615 34.464 17.7615 34.4481C17.7615 34.0528 17.6952 32.5853 17.2972 31.4252C17.1692 31.0521 16.457 30.0363 15.2852 29.4971C15.4005 29.532 15.5283 29.5824 15.6783 29.6415Z" fill="#081028"/>
<path fill-rule="evenodd" clip-rule="evenodd" d="M17.3401 8.02222C14.4523 8.02222 12.1113 10.3632 12.1113 13.251V25.4078C12.1113 28.2956 14.4523 30.6366 17.3401 30.6366H32.8386C35.7263 30.6366 38.0673 28.2956 38.0673 25.4078V16.8934C38.2184 16.9229 38.5906 16.9468 38.7077 16.887C38.7309 16.8752 38.7564 16.8694 38.7831 16.8633C38.9001 16.8365 39.0407 16.8044 39.1259 16.2313C39.2304 15.5275 39.1468 13.7842 39.0632 13.4963C38.9962 13.2659 38.7146 13.1764 38.5822 13.1604H38.1221C38.103 13.1604 38.0845 13.1615 38.0666 13.1638C38.02 10.3162 35.6972 8.02222 32.8386 8.02222H17.3401Z" fill="#7E89AC"/>
<rect x="13.2168" y="8.84058" width="23.7413" height="20.978" rx="4.34641" fill="#081028"/>
<rect x="13.5527" y="9.42188" width="16.3329" height="19.9521" rx="3.54575" fill="#0B1739"/>
</svg>
