<svg width="13" height="12" viewBox="0 0 13 12" fill="none" xmlns="http://www.w3.org/2000/svg">
<path d="M11.7761 2.53337H9.42807C9.317 1.89015 8.98228 1.30684 8.483 0.886384C7.98372 0.465927 7.35196 0.235352 6.69922 0.235352C6.04648 0.235352 5.41472 0.465927 4.91544 0.886384C4.41615 1.30684 4.08144 1.89015 3.97037 2.53337H1.6223C1.37748 2.53337 1.14269 2.63063 0.969582 2.80374C0.796471 2.97685 0.699219 3.21164 0.699219 3.45645V10.8411C0.699219 11.0859 0.796471 11.3207 0.969582 11.4938C1.14269 11.6669 1.37748 11.7641 1.6223 11.7641H11.7761C12.021 11.7641 12.2557 11.6669 12.4289 11.4938C12.602 11.3207 12.6992 11.0859 12.6992 10.8411V3.45645C12.6992 3.21164 12.602 2.97685 12.4289 2.80374C12.2557 2.63063 12.021 2.53337 11.7761 2.53337V2.53337ZM6.69922 1.14876C7.10841 1.14954 7.50582 1.28582 7.82938 1.53632C8.15294 1.78682 8.38443 2.13742 8.48768 2.53337H4.91076C5.01401 2.13742 5.2455 1.78682 5.56905 1.53632C5.89261 1.28582 6.29003 1.14954 6.69922 1.14876V1.14876Z" fill="#321647"/>
</svg>
