<svg width="11" height="11" viewBox="0 0 11 11" fill="none" xmlns="http://www.w3.org/2000/svg">
<path d="M10.1752 1.44864C10.0333 1.30731 9.86479 1.19551 9.6794 1.11968C9.49402 1.04386 9.29545 1.00551 9.09516 1.00687C8.89487 1.00823 8.69683 1.04925 8.51249 1.12758C8.32815 1.20591 8.16115 1.31999 8.02115 1.46322L2.36684 7.11761C2.11339 7.37107 1.93271 7.68799 1.8437 8.03521L1.41001 9.72714C1.3345 10.0217 1.6023 10.2895 1.89686 10.2139L3.58893 9.77993C3.93605 9.6909 4.25287 9.51024 4.50626 9.25684L10.1607 3.60236C10.3039 3.46242 10.418 3.29546 10.4964 3.11115C10.5748 2.92683 10.6158 2.72881 10.6172 2.52854C10.6185 2.32827 10.5802 2.12971 10.5043 1.94435C10.4285 1.759 10.3166 1.59051 10.1752 1.44864Z" fill="#321647"/>
</svg>
