<svg width="53" height="13" viewBox="0 0 53 13" fill="none" xmlns="http://www.w3.org/2000/svg">
<path d="M6.69531 0.944336C5.10499 0.947507 3.58071 1.58067 2.45617 2.7052C1.33164 3.82973 0.698484 5.35401 0.695312 6.94434V12.0023C0.695312 12.2522 0.794559 12.4918 0.971218 12.6684C1.14788 12.8451 1.38748 12.9443 1.63731 12.9443H6.69531C8.28661 12.9443 9.81273 12.3122 10.938 11.187C12.0632 10.0618 12.6953 8.53563 12.6953 6.94434C12.6953 5.35304 12.0632 3.82691 10.938 2.7017C9.81273 1.57648 8.28661 0.944336 6.69531 0.944336Z" fill="#321647"/>
<path d="M19.5339 12.0438C19.0249 12.0438 18.5751 11.9562 18.1845 11.781C17.7962 11.6058 17.492 11.3643 17.2718 11.0566C17.0517 10.7488 16.9428 10.3984 16.9451 10.0054C16.9428 9.69765 17.0055 9.41474 17.1333 9.15669C17.2636 8.89628 17.4399 8.67966 17.6625 8.50684C17.885 8.33165 18.1336 8.22038 18.4082 8.17303V8.13042C18.046 8.04282 17.756 7.84869 17.5382 7.54803C17.3204 7.24737 17.2127 6.90172 17.215 6.5111C17.2127 6.13941 17.3109 5.80797 17.5098 5.51678C17.711 5.22322 17.9868 4.99239 18.3372 4.82431C18.6876 4.65622 19.0865 4.57218 19.5339 4.57218C19.9766 4.57218 20.372 4.6574 20.72 4.82786C21.0704 4.99595 21.3462 5.22677 21.5474 5.52033C21.7486 5.81152 21.8504 6.14178 21.8528 6.5111C21.8504 6.90172 21.7392 7.24737 21.519 7.54803C21.2988 7.84869 21.0124 8.04282 20.6596 8.13042V8.17303C20.9319 8.22038 21.1769 8.33165 21.3947 8.50684C21.6149 8.67966 21.7901 8.89628 21.9203 9.15669C22.0529 9.41474 22.1203 9.69765 22.1227 10.0054C22.1203 10.3984 22.0091 10.7488 21.7889 11.0566C21.5687 11.3643 21.2633 11.6058 20.8727 11.781C20.4844 11.9562 20.0382 12.0438 19.5339 12.0438ZM19.5339 11.1453C19.8346 11.1453 20.095 11.0956 20.3152 10.9962C20.5353 10.8944 20.7058 10.7535 20.8265 10.5736C20.9473 10.3913 21.0088 10.1782 21.0112 9.93439C21.0088 9.68108 20.9425 9.45736 20.8123 9.26323C20.6845 9.0691 20.5105 8.9164 20.2903 8.80513C20.0701 8.69386 19.818 8.63823 19.5339 8.63823C19.2475 8.63823 18.993 8.69386 18.7704 8.80513C18.5479 8.9164 18.3727 9.0691 18.2449 9.26323C18.117 9.45736 18.0543 9.68108 18.0566 9.93439C18.0543 10.1782 18.1123 10.3913 18.2306 10.5736C18.3514 10.7535 18.523 10.8944 18.7456 10.9962C18.9681 11.0956 19.2309 11.1453 19.5339 11.1453ZM19.5339 7.7611C19.7754 7.7611 19.9896 7.71257 20.1767 7.6155C20.3637 7.51844 20.5105 7.38349 20.617 7.21067C20.7259 7.03785 20.7815 6.83543 20.7839 6.60343C20.7815 6.37615 20.7271 6.17729 20.6206 6.00684C20.5164 5.83638 20.3708 5.70499 20.1838 5.61266C19.9967 5.51796 19.7801 5.47061 19.5339 5.47061C19.283 5.47061 19.0628 5.51796 18.8734 5.61266C18.6864 5.70499 18.5408 5.83638 18.4366 6.00684C18.3324 6.17729 18.2815 6.37615 18.2839 6.60343C18.2815 6.83543 18.3336 7.03785 18.4402 7.21067C18.5467 7.38349 18.6935 7.51844 18.8805 7.6155C19.0699 7.71257 19.2877 7.7611 19.5339 7.7611Z" fill="#321647"/>
<path d="M41.6016 6.63586C41.6873 6.72384 41.7347 6.84206 41.7336 6.96483C41.7325 7.08759 41.683 7.20496 41.5959 7.29142L36.8805 12.0011C36.2765 12.605 35.4574 12.9443 34.6033 12.9443C33.7491 12.9443 32.93 12.605 32.3261 12.0011C31.7221 11.3971 31.3828 10.578 31.3828 9.72389C31.3828 8.86977 31.7221 8.05064 32.3261 7.44669L38.0363 1.66167C38.2476 1.43891 38.5013 1.26069 38.7826 1.13753C39.0638 1.01437 39.3668 0.948751 39.6738 0.944551C39.9808 0.940352 40.2855 0.997652 40.57 1.11308C40.8545 1.2285 41.1131 1.39971 41.3303 1.61661C41.5476 1.83352 41.7193 2.09173 41.8352 2.37602C41.9511 2.66031 42.009 2.96494 42.0053 3.27194C42.0017 3.57893 41.9366 3.88209 41.8139 4.16355C41.6913 4.445 41.5135 4.69904 41.2911 4.91071L35.5808 10.6957C35.4532 10.8253 35.301 10.9282 35.1332 10.9983C34.9653 11.0684 34.7852 11.1043 34.6033 11.104C34.3298 11.1047 34.0623 11.0241 33.8347 10.8725C33.6071 10.7209 33.4297 10.5051 33.325 10.2525C33.2203 9.9999 33.1929 9.72187 33.2465 9.45371C33.3 9.18554 33.432 8.93933 33.6257 8.7463L38.4158 3.88137C38.4573 3.83488 38.5078 3.79728 38.5642 3.77087C38.6206 3.74446 38.6818 3.72978 38.744 3.72772C38.8063 3.72566 38.8683 3.73627 38.9263 3.75889C38.9844 3.78152 39.0372 3.8157 39.0816 3.85935C39.1261 3.903 39.1612 3.95522 39.1848 4.01285C39.2085 4.07047 39.2202 4.1323 39.2192 4.19458C39.2183 4.25686 39.2047 4.3183 39.1793 4.37517C39.1539 4.43204 39.1172 4.48316 39.0714 4.52543L34.2812 9.39611C34.2376 9.43885 34.203 9.48985 34.1793 9.54612C34.1556 9.6024 34.1433 9.66283 34.1432 9.72389C34.1449 9.81439 34.1729 9.90245 34.2239 9.97728C34.2748 10.0521 34.3464 10.1105 34.43 10.1453C34.5136 10.18 34.6055 10.1897 34.6945 10.1731C34.7834 10.1565 34.8657 10.1143 34.931 10.0517L40.6355 4.2609C40.7652 4.13327 40.868 3.98107 40.9381 3.81322C41.0082 3.64537 41.0442 3.46522 41.0438 3.28332C41.0445 3.00986 40.9639 2.74237 40.8123 2.51479C40.6607 2.2872 40.4449 2.10979 40.1923 2.00505C39.9397 1.90031 39.6617 1.87297 39.3935 1.92651C39.1254 1.98004 38.8791 2.11203 38.6861 2.30573L32.9816 8.09649C32.7589 8.30777 32.5806 8.5615 32.4575 8.84273C32.3343 9.12397 32.2687 9.42701 32.2645 9.734C32.2603 10.041 32.3176 10.3457 32.433 10.6302C32.5484 10.9147 32.7197 11.1732 32.9366 11.3905C33.1535 11.6078 33.4117 11.7795 33.696 11.8954C33.9803 12.0113 34.2849 12.0692 34.5919 12.0655C34.8989 12.0619 35.202 11.9968 35.4835 11.8741C35.7649 11.7514 36.019 11.5737 36.2307 11.3513L40.9461 6.63586C41.0333 6.54948 41.1511 6.50101 41.2739 6.50101C41.3966 6.50101 41.5144 6.54948 41.6016 6.63586Z" fill="#321647"/>
<path d="M49.5765 12.0438C49.2522 12.039 48.9326 11.9798 48.6177 11.8662C48.3052 11.7526 48.0211 11.5632 47.7654 11.298C47.5098 11.0329 47.305 10.6766 47.1511 10.2291C46.9996 9.78169 46.9238 9.22298 46.9238 8.553C46.9238 7.91853 46.9866 7.35508 47.112 6.86266C47.2399 6.37024 47.4234 5.95475 47.6625 5.61621C47.9016 5.2753 48.1904 5.01607 48.5289 4.83851C48.8675 4.66095 49.2475 4.57218 49.6689 4.57218C50.1021 4.57218 50.4868 4.6574 50.823 4.82786C51.1592 4.99831 51.4314 5.23387 51.6397 5.53453C51.8504 5.8352 51.9842 6.17729 52.041 6.56081H50.9579C50.8845 6.25778 50.7389 6.01039 50.5211 5.81863C50.3033 5.62686 50.0192 5.53098 49.6689 5.53098C49.1362 5.53098 48.7207 5.76299 48.4224 6.22701C48.1265 6.69102 47.9773 7.33614 47.975 8.16238H48.0282C48.1537 7.95641 48.3076 7.78122 48.4899 7.63681C48.6745 7.49003 48.8805 7.37757 49.1078 7.29945C49.3374 7.21896 49.5789 7.17871 49.8322 7.17871C50.2536 7.17871 50.6348 7.28169 50.9757 7.48766C51.319 7.69126 51.5924 7.97298 51.796 8.33283C51.9996 8.69268 52.1014 9.10461 52.1014 9.56863C52.1014 10.0326 51.996 10.4529 51.7853 10.8293C51.577 11.2057 51.2834 11.504 50.9047 11.7242C50.5259 11.942 50.0832 12.0485 49.5765 12.0438ZM49.573 11.1205C49.8523 11.1205 50.1021 11.0518 50.3223 10.9145C50.5424 10.7772 50.7164 10.5925 50.8443 10.3605C50.9721 10.1285 51.036 9.86929 51.036 9.58283C51.036 9.30347 50.9733 9.04898 50.8478 8.81934C50.7247 8.5897 50.5543 8.4074 50.3365 8.27246C50.121 8.13752 49.8748 8.07005 49.5978 8.07005C49.3871 8.07005 49.1918 8.11029 49.0119 8.19078C48.8343 8.27128 48.6781 8.38255 48.5431 8.52459C48.4082 8.66664 48.3017 8.82999 48.2235 9.01465C48.1478 9.19694 48.1099 9.38989 48.1099 9.59348C48.1099 9.86574 48.1726 10.1179 48.2981 10.3499C48.426 10.5819 48.6 10.7689 48.8201 10.911C49.0427 11.0506 49.2936 11.1205 49.573 11.1205Z" fill="#321647"/>
</svg>
