<svg width="14" height="15" viewBox="0 0 14 15" fill="none" xmlns="http://www.w3.org/2000/svg">
<path d="M5.28047 1.89484C6.05553 0.59003 7.94447 0.590028 8.71952 1.89484L9.50161 3.21149C9.78227 3.68399 10.245 4.02018 10.7811 4.1411L12.275 4.47804C13.7554 4.81195 14.3392 6.60844 13.3377 7.74877L12.3272 8.89944C11.9645 9.31238 11.7878 9.85634 11.8385 10.4036L11.9796 11.9285C12.1196 13.4396 10.5914 14.5499 9.1974 13.9499L7.79077 13.3444C7.28598 13.1271 6.71402 13.1271 6.20923 13.3444L4.8026 13.9499C3.40862 14.5499 1.88044 13.4396 2.02035 11.9285L2.16154 10.4036C2.21221 9.85635 2.03546 9.31238 1.67282 8.89944L0.662288 7.74877C-0.339158 6.60844 0.244555 4.81195 1.72501 4.47804L3.2189 4.1411C3.755 4.02018 4.21773 3.68399 4.49839 3.2115L5.28047 1.89484Z" fill="#321647"/>
</svg>
